<?xml version="1.0" encoding="utf-8"?>
<!-- Generator: Adobe Illustrator 24.2.0, SVG Export Plug-In . SVG Version: 6.00 Build 0)  -->
<svg version="1.1" id="Layer_1" xmlns="http://www.w3.org/2000/svg" xmlns:xlink="http://www.w3.org/1999/xlink" x="0px" y="0px"
	 viewBox="0 0 1200 1200" style="enable-background:new 0 0 1200 1200;" xml:space="preserve">
<style type="text/css">
	.st0{fill:url(#SVGID_1_);}
	.st1{fill:url(#SVGID_2_);}
	.st2{fill:url(#SVGID_3_);}
	.st3{fill:url(#SVGID_4_);}
	.st4{fill:url(#SVGID_5_);}
	.st5{fill:url(#SVGID_6_);}
	.st6{fill:url(#SVGID_7_);}
	.st7{fill:url(#SVGID_8_);}
</style>
<g>
	<g>
		<g>
			<linearGradient id="SVGID_1_" gradientUnits="userSpaceOnUse" x1="229.4349" y1="917.7189" x2="172.0636" y2="559.1484">
				<stop  offset="1.118836e-07" style="stop-color:#835DFE"/>
				<stop  offset="0.3738" style="stop-color:#855CFD"/>
				<stop  offset="0.5518" style="stop-color:#8D5AFA"/>
				<stop  offset="0.6883" style="stop-color:#9A56F4"/>
				<stop  offset="0.8037" style="stop-color:#AC50EB"/>
				<stop  offset="0.9048" style="stop-color:#C448E0"/>
				<stop  offset="0.9961" style="stop-color:#E13ED3"/>
				<stop  offset="1" style="stop-color:#E23ED2"/>
			</linearGradient>
			<path class="st0" d="M189.23,742.44h-55.21V521.02h-83.2v-55.4h221.42v55.4h-83.01V742.44z"/>
			<linearGradient id="SVGID_2_" gradientUnits="userSpaceOnUse" x1="393.6019" y1="891.4522" x2="336.2306" y2="532.8817">
				<stop  offset="1.118836e-07" style="stop-color:#835DFE"/>
				<stop  offset="0.3738" style="stop-color:#855CFD"/>
				<stop  offset="0.5518" style="stop-color:#8D5AFA"/>
				<stop  offset="0.6883" style="stop-color:#9A56F4"/>
				<stop  offset="0.8037" style="stop-color:#AC50EB"/>
				<stop  offset="0.9048" style="stop-color:#C448E0"/>
				<stop  offset="0.9961" style="stop-color:#E13ED3"/>
				<stop  offset="1" style="stop-color:#E23ED2"/>
			</linearGradient>
			<path class="st1" d="M345.79,691.86c2.06,0.64,4.12,1.06,6.18,1.25c2.06,0.19,4.11,0.29,6.18,0.29c5.15,0,10.1-0.71,14.87-2.12
				c4.76-1.41,9.23-3.44,13.41-6.08c4.18-2.64,7.92-5.85,11.2-9.65c3.28-3.8,5.95-8.01,8.01-12.65l38.61,38.8
				c-4.89,6.95-10.52,13.19-16.89,18.72c-6.37,5.54-13.26,10.23-20.65,14.09c-7.4,3.86-15.19,6.79-23.36,8.78
				c-8.17,1.99-16.57,2.99-25.19,2.99c-14.54,0-28.21-2.7-41.02-8.11c-12.81-5.41-24-12.93-33.59-22.59
				c-9.59-9.65-17.15-21.14-22.68-34.46c-5.53-13.32-8.3-27.96-8.3-43.92c0-16.34,2.77-31.27,8.3-44.79
				c5.53-13.51,13.09-25.03,22.68-34.55c9.58-9.52,20.78-16.92,33.59-22.2c12.81-5.28,26.48-7.92,41.02-7.92
				c8.62,0,17.05,1.03,25.29,3.09c8.23,2.06,16.05,5.02,23.45,8.88c7.4,3.86,14.32,8.59,20.75,14.19
				c6.43,5.6,12.1,11.87,16.99,18.82L345.79,691.86z M372.82,583.18c-2.44-0.9-4.86-1.48-7.24-1.74c-2.38-0.26-4.86-0.39-7.43-0.39
				c-7.21,0-14,1.32-20.37,3.96c-6.37,2.64-11.9,6.4-16.6,11.29c-4.7,4.89-8.4,10.78-11.1,17.66c-2.7,6.89-4.05,14.64-4.05,23.26
				c0,1.93,0.1,4.12,0.29,6.56c0.2,2.44,0.51,4.92,0.97,7.43c0.45,2.51,0.99,4.92,1.64,7.24c0.64,2.32,1.48,4.38,2.51,6.18
				L372.82,583.18z"/>
			<linearGradient id="SVGID_3_" gradientUnits="userSpaceOnUse" x1="593.5501" y1="859.4605" x2="536.1788" y2="500.8899">
				<stop  offset="1.118836e-07" style="stop-color:#835DFE"/>
				<stop  offset="0.3738" style="stop-color:#855CFD"/>
				<stop  offset="0.5518" style="stop-color:#8D5AFA"/>
				<stop  offset="0.6883" style="stop-color:#9A56F4"/>
				<stop  offset="0.8037" style="stop-color:#AC50EB"/>
				<stop  offset="0.9048" style="stop-color:#C448E0"/>
				<stop  offset="0.9961" style="stop-color:#E13ED3"/>
				<stop  offset="1" style="stop-color:#E23ED2"/>
			</linearGradient>
			<path class="st2" d="M650.22,576.81l-38.61,38.8c-1.93-5.4-4.57-10.26-7.92-14.57c-3.35-4.31-7.11-7.95-11.29-10.91
				c-4.18-2.96-8.72-5.21-13.61-6.76c-4.89-1.54-9.91-2.32-15.06-2.32c-7.21,0-14,1.48-20.37,4.44c-6.37,2.96-11.9,7.11-16.6,12.45
				c-4.7,5.34-8.4,11.68-11.1,19.02c-2.71,7.34-4.06,15.44-4.06,24.32c0,7.21,1.35,13.97,4.06,20.27c2.7,6.31,6.4,11.84,11.1,16.6
				c4.7,4.76,10.23,8.49,16.6,11.2c6.37,2.7,13.16,4.05,20.37,4.05c5.14,0,10.1-0.71,14.86-2.12c4.76-1.41,9.23-3.44,13.42-6.08
				c4.18-2.64,7.91-5.85,11.19-9.65c3.28-3.8,5.95-8.01,8.01-12.65l38.61,38.8c-4.89,6.95-10.52,13.19-16.89,18.72
				c-6.37,5.54-13.26,10.23-20.65,14.09c-7.4,3.86-15.19,6.79-23.36,8.78c-8.17,1.99-16.57,2.99-25.19,2.99
				c-14.54,0-28.22-2.74-41.02-8.2c-12.81-5.47-24-12.96-33.59-22.49c-9.59-9.52-17.15-20.65-22.68-33.4
				c-5.54-12.74-8.3-26.38-8.3-40.93c0-15.83,2.76-30.63,8.3-44.4c5.53-13.77,13.09-25.77,22.68-36
				c9.59-10.23,20.78-18.31,33.59-24.23c12.8-5.92,26.48-8.88,41.02-8.88c8.62,0,17.08,1.09,25.38,3.28
				c8.3,2.19,16.22,5.37,23.74,9.56c7.53,4.18,14.48,9.3,20.85,15.35C640.09,562.01,645.59,568.96,650.22,576.81z"/>
			<linearGradient id="SVGID_4_" gradientUnits="userSpaceOnUse" x1="791.9728" y1="827.7129" x2="734.6016" y2="469.1423">
				<stop  offset="1.118836e-07" style="stop-color:#835DFE"/>
				<stop  offset="0.3738" style="stop-color:#855CFD"/>
				<stop  offset="0.5518" style="stop-color:#8D5AFA"/>
				<stop  offset="0.6883" style="stop-color:#9A56F4"/>
				<stop  offset="0.8037" style="stop-color:#AC50EB"/>
				<stop  offset="0.9048" style="stop-color:#C448E0"/>
				<stop  offset="0.9961" style="stop-color:#E13ED3"/>
				<stop  offset="1" style="stop-color:#E23ED2"/>
			</linearGradient>
			<path class="st3" d="M728.59,742.44h-52.7V453.46h52.7v91.31c6.3-4.76,12.8-8.14,19.5-10.14c6.69-1.99,13.51-2.99,20.46-2.99
				c12.74,0,24.71,2.41,35.91,7.24c11.2,4.83,20.95,11.46,29.25,19.88c8.3,8.43,14.86,18.28,19.69,29.53
				c4.82,11.26,7.24,23.26,7.24,36v118.14h-53.09V624.3h0.39c0-5.41-1.03-10.52-3.09-15.35c-2.06-4.83-4.89-9.04-8.49-12.65
				c-3.61-3.6-7.79-6.43-12.55-8.49c-4.76-2.06-9.84-3.09-15.25-3.09c-5.53,0-10.75,1.03-15.63,3.09
				c-4.89,2.06-9.14,4.89-12.74,8.49c-3.6,3.61-6.44,7.82-8.49,12.65c-2.06,4.83-3.09,9.94-3.09,15.35V742.44z"/>
		</g>
	</g>
	<g>
		<linearGradient id="SVGID_5_" gradientUnits="userSpaceOnUse" x1="827.5701" y1="896.4996" x2="1023.6136" y2="615.0823">
			<stop  offset="0.3884" style="stop-color:#FFD302"/>
			<stop  offset="0.5171" style="stop-color:#FECE04"/>
			<stop  offset="0.6723" style="stop-color:#FDBF0A"/>
			<stop  offset="0.8406" style="stop-color:#FAA713"/>
			<stop  offset="1" style="stop-color:#F6891F"/>
		</linearGradient>
		<polygon class="st4" points="1065.04,603.67 976.33,746.3 898.58,746.3 987.43,603.67 		"/>
		<linearGradient id="SVGID_6_" gradientUnits="userSpaceOnUse" x1="997.3516" y1="544.2059" x2="1089.3534" y2="714.0553">
			<stop  offset="0.3884" style="stop-color:#FFD302"/>
			<stop  offset="0.6915" style="stop-color:#FFCE06"/>
			<stop  offset="1" style="stop-color:#FFC20E"/>
		</linearGradient>
		<polygon class="st5" points="1148.57,745.45 1071.37,746.11 987.34,603.67 1065.04,603.67 		"/>
		
			<linearGradient id="SVGID_7_" gradientUnits="userSpaceOnUse" x1="827.5701" y1="1341.1134" x2="1023.6136" y2="1059.696" gradientTransform="matrix(1 0 0 -1 0 1652.1422)">
			<stop  offset="0.3884" style="stop-color:#FFD302"/>
			<stop  offset="0.5171" style="stop-color:#FECE04"/>
			<stop  offset="0.6723" style="stop-color:#FDBF0A"/>
			<stop  offset="0.8406" style="stop-color:#FAA713"/>
			<stop  offset="1" style="stop-color:#F6891F"/>
		</linearGradient>
		<polygon class="st6" points="1065.04,603.86 976.33,461.23 898.58,461.23 987.43,603.86 		"/>
		<linearGradient id="SVGID_8_" gradientUnits="userSpaceOnUse" x1="1003.9504" y1="418.5855" x2="1094.5857" y2="580.5542">
			<stop  offset="0.4456" style="stop-color:#FBC115"/>
			<stop  offset="0.6125" style="stop-color:#FBBC12"/>
			<stop  offset="0.8135" style="stop-color:#FCAD0B"/>
			<stop  offset="1" style="stop-color:#FE9901"/>
		</linearGradient>
		<polygon class="st7" points="1148.57,462.08 1071.37,461.42 987.34,603.86 1065.04,603.86 		"/>
	</g>
</g>
</svg>
